<svg xmlns="http://www.w3.org/2000/svg" width="1710" height="989" style="cursor: move;"><g><path class="link" marker-end="" d="M695,264.5, 875,348.5" style="stroke-width: 0.52px; stroke-opacity: 1; stroke: rgb(255, 188, 94); fill: none;"></path><path class="link" marker-end="" d="M695,304.5, 875,348.5" style="stroke-width: 0.52px; stroke-opacity: 1; stroke: rgb(255, 188, 94); fill: none;"></path><path class="link" marker-end="" d="M695,344.5, 875,348.5" style="stroke-width: 0.52px; stroke-opacity: 1; stroke: rgb(255, 188, 94); fill: none;"></path><path class="link" marker-end="" d="M695,384.5, 875,348.5" style="stroke-width: 0.52px; stroke-opacity: 1; stroke: rgb(255, 188, 94); fill: none;"></path><path class="link" marker-end="" d="M695,424.5, 875,348.5" style="stroke-width: 0.52px; stroke-opacity: 1; stroke: rgb(255, 188, 94); fill: none;"></path><path class="link" marker-end="" d="M695,464.5, 875,348.5" style="stroke-width: 0.52px; stroke-opacity: 1; stroke: rgb(255, 188, 94); fill: none;"></path><path class="link" marker-end="" d="M695,504.5, 875,348.5" style="stroke-width: 0.52px; stroke-opacity: 1; stroke: rgb(255, 188, 94); fill: none;"></path><path class="link" marker-end="" d="M695,544.5, 875,348.5" style="stroke-width: 0.52px; stroke-opacity: 1; stroke: rgb(255, 188, 94); fill: none;"></path><path class="link" marker-end="" d="M695,584.5, 875,348.5" style="stroke-width: 0.52px; stroke-opacity: 1; stroke: rgb(255, 188, 94); fill: none;"></path><path class="link" marker-end="" d="M695,624.5, 875,348.5" style="stroke-width: 0.52px; stroke-opacity: 1; stroke: rgb(255, 188, 94); fill: none;"></path><path class="link" marker-end="" d="M695,664.5, 875,348.5" style="stroke-width: 0.52px; stroke-opacity: 1; stroke: rgb(255, 188, 94); fill: none;"></path><path class="link" marker-end="" d="M695,704.5, 875,348.5" style="stroke-width: 0.52px; stroke-opacity: 1; stroke: rgb(255, 188, 94); fill: none;"></path><path class="link" marker-end="" d="M875,348.5, 1055,484.5" style="stroke-width: 0.52px; stroke-opacity: 1; stroke: rgb(255, 188, 94); fill: none;"></path><path class="link" marker-end="" d="M695,264.5, 875,416.5" style="stroke-width: 0.52px; stroke-opacity: 1; stroke: rgb(255, 188, 94); fill: none;"></path><path class="link" marker-end="" d="M695,264.5, 875,484.5" style="stroke-width: 0.52px; stroke-opacity: 1; stroke: rgb(255, 188, 94); fill: none;"></path><path class="link" marker-end="" d="M695,264.5, 875,552.5" style="stroke-width: 0.52px; stroke-opacity: 1; stroke: rgb(255, 188, 94); fill: none;"></path><path class="link" marker-end="" d="M695,264.5, 875,620.5" style="stroke-width: 0.52px; stroke-opacity: 1; stroke: rgb(255, 188, 94); fill: none;"></path><path class="link" marker-end="" d="M695,304.5, 875,416.5" style="stroke-width: 0.52px; stroke-opacity: 1; stroke: rgb(255, 188, 94); fill: none;"></path><path class="link" marker-end="" d="M695,304.5, 875,484.5" style="stroke-width: 0.52px; stroke-opacity: 1; stroke: rgb(255, 188, 94); fill: none;"></path><path class="link" marker-end="" d="M695,304.5, 875,552.5" style="stroke-width: 0.52px; stroke-opacity: 1; stroke: rgb(255, 188, 94); fill: none;"></path><path class="link" marker-end="" d="M695,304.5, 875,620.5" style="stroke-width: 0.52px; stroke-opacity: 1; stroke: rgb(255, 188, 94); fill: none;"></path><path class="link" marker-end="" d="M695,344.5, 875,416.5" style="stroke-width: 0.52px; stroke-opacity: 1; stroke: rgb(255, 188, 94); fill: none;"></path><path class="link" marker-end="" d="M695,344.5, 875,484.5" style="stroke-width: 0.52px; stroke-opacity: 1; stroke: rgb(255, 188, 94); fill: none;"></path><path class="link" marker-end="" d="M695,344.5, 875,552.5" style="stroke-width: 0.52px; stroke-opacity: 1; stroke: rgb(255, 188, 94); fill: none;"></path><path class="link" marker-end="" d="M695,344.5, 875,620.5" style="stroke-width: 0.52px; stroke-opacity: 1; stroke: rgb(255, 188, 94); fill: none;"></path><path class="link" marker-end="" d="M695,384.5, 875,416.5" style="stroke-width: 0.52px; stroke-opacity: 1; stroke: rgb(255, 188, 94); fill: none;"></path><path class="link" marker-end="" d="M695,384.5, 875,484.5" style="stroke-width: 0.52px; stroke-opacity: 1; stroke: rgb(255, 188, 94); fill: none;"></path><path class="link" marker-end="" d="M695,384.5, 875,552.5" style="stroke-width: 0.52px; stroke-opacity: 1; stroke: rgb(255, 188, 94); fill: none;"></path><path class="link" marker-end="" d="M695,384.5, 875,620.5" style="stroke-width: 0.52px; stroke-opacity: 1; stroke: rgb(255, 188, 94); fill: none;"></path><path class="link" marker-end="" d="M695,424.5, 875,416.5" style="stroke-width: 0.52px; stroke-opacity: 1; stroke: rgb(255, 188, 94); fill: none;"></path><path class="link" marker-end="" d="M695,424.5, 875,484.5" style="stroke-width: 0.52px; stroke-opacity: 1; stroke: rgb(255, 188, 94); fill: none;"></path><path class="link" marker-end="" d="M695,424.5, 875,552.5" style="stroke-width: 0.52px; stroke-opacity: 1; stroke: rgb(255, 188, 94); fill: none;"></path><path class="link" marker-end="" d="M695,424.5, 875,620.5" style="stroke-width: 0.52px; stroke-opacity: 1; stroke: rgb(255, 188, 94); fill: none;"></path><path class="link" marker-end="" d="M695,464.5, 875,416.5" style="stroke-width: 0.52px; stroke-opacity: 1; stroke: rgb(255, 188, 94); fill: none;"></path><path class="link" marker-end="" d="M695,464.5, 875,484.5" style="stroke-width: 0.52px; stroke-opacity: 1; stroke: rgb(255, 188, 94); fill: none;"></path><path class="link" marker-end="" d="M695,464.5, 875,552.5" style="stroke-width: 0.52px; stroke-opacity: 1; stroke: rgb(255, 188, 94); fill: none;"></path><path class="link" marker-end="" d="M695,464.5, 875,620.5" style="stroke-width: 0.52px; stroke-opacity: 1; stroke: rgb(255, 188, 94); fill: none;"></path><path class="link" marker-end="" d="M695,504.5, 875,416.5" style="stroke-width: 0.52px; stroke-opacity: 1; stroke: rgb(255, 188, 94); fill: none;"></path><path class="link" marker-end="" d="M695,504.5, 875,484.5" style="stroke-width: 0.52px; stroke-opacity: 1; stroke: rgb(255, 188, 94); fill: none;"></path><path class="link" marker-end="" d="M695,504.5, 875,552.5" style="stroke-width: 0.52px; stroke-opacity: 1; stroke: rgb(255, 188, 94); fill: none;"></path><path class="link" marker-end="" d="M695,504.5, 875,620.5" style="stroke-width: 0.52px; stroke-opacity: 1; stroke: rgb(255, 188, 94); fill: none;"></path><path class="link" marker-end="" d="M695,544.5, 875,416.5" style="stroke-width: 0.52px; stroke-opacity: 1; stroke: rgb(255, 188, 94); fill: none;"></path><path class="link" marker-end="" d="M695,544.5, 875,484.5" style="stroke-width: 0.52px; stroke-opacity: 1; stroke: rgb(255, 188, 94); fill: none;"></path><path class="link" marker-end="" d="M695,544.5, 875,552.5" style="stroke-width: 0.52px; stroke-opacity: 1; stroke: rgb(255, 188, 94); fill: none;"></path><path class="link" marker-end="" d="M695,544.5, 875,620.5" style="stroke-width: 0.52px; stroke-opacity: 1; stroke: rgb(255, 188, 94); fill: none;"></path><path class="link" marker-end="" d="M695,584.5, 875,416.5" style="stroke-width: 0.52px; stroke-opacity: 1; stroke: rgb(255, 188, 94); fill: none;"></path><path class="link" marker-end="" d="M695,584.5, 875,484.5" style="stroke-width: 0.52px; stroke-opacity: 1; stroke: rgb(255, 188, 94); fill: none;"></path><path class="link" marker-end="" d="M695,584.5, 875,552.5" style="stroke-width: 0.52px; stroke-opacity: 1; stroke: rgb(255, 188, 94); fill: none;"></path><path class="link" marker-end="" d="M695,584.5, 875,620.5" style="stroke-width: 0.52px; stroke-opacity: 1; stroke: rgb(255, 188, 94); fill: none;"></path><path class="link" marker-end="" d="M695,624.5, 875,416.5" style="stroke-width: 0.52px; stroke-opacity: 1; stroke: rgb(255, 188, 94); fill: none;"></path><path class="link" marker-end="" d="M695,624.5, 875,484.5" style="stroke-width: 0.52px; stroke-opacity: 1; stroke: rgb(255, 188, 94); fill: none;"></path><path class="link" marker-end="" d="M695,624.5, 875,552.5" style="stroke-width: 0.52px; stroke-opacity: 1; stroke: rgb(255, 188, 94); fill: none;"></path><path class="link" marker-end="" d="M695,624.5, 875,620.5" style="stroke-width: 0.52px; stroke-opacity: 1; stroke: rgb(255, 188, 94); fill: none;"></path><path class="link" marker-end="" d="M695,664.5, 875,416.5" style="stroke-width: 0.52px; stroke-opacity: 1; stroke: rgb(255, 188, 94); fill: none;"></path><path class="link" marker-end="" d="M695,664.5, 875,484.5" style="stroke-width: 0.52px; stroke-opacity: 1; stroke: rgb(255, 188, 94); fill: none;"></path><path class="link" marker-end="" d="M695,664.5, 875,552.5" style="stroke-width: 0.52px; stroke-opacity: 1; stroke: rgb(255, 188, 94); fill: none;"></path><path class="link" marker-end="" d="M695,664.5, 875,620.5" style="stroke-width: 0.52px; stroke-opacity: 1; stroke: rgb(255, 188, 94); fill: none;"></path><path class="link" marker-end="" d="M695,704.5, 875,416.5" style="stroke-width: 0.52px; stroke-opacity: 1; stroke: rgb(255, 188, 94); fill: none;"></path><path class="link" marker-end="" d="M695,704.5, 875,484.5" style="stroke-width: 0.52px; stroke-opacity: 1; stroke: rgb(255, 188, 94); fill: none;"></path><path class="link" marker-end="" d="M695,704.5, 875,552.5" style="stroke-width: 0.52px; stroke-opacity: 1; stroke: rgb(255, 188, 94); fill: none;"></path><path class="link" marker-end="" d="M695,704.5, 875,620.5" style="stroke-width: 0.52px; stroke-opacity: 1; stroke: rgb(255, 188, 94); fill: none;"></path><path class="link" marker-end="" d="M875,416.5, 1055,484.5" style="stroke-width: 0.52px; stroke-opacity: 1; stroke: rgb(255, 188, 94); fill: none;"></path><path class="link" marker-end="" d="M875,484.5, 1055,484.5" style="stroke-width: 0.52px; stroke-opacity: 1; stroke: rgb(255, 188, 94); fill: none;"></path><path class="link" marker-end="" d="M875,552.5, 1055,484.5" style="stroke-width: 0.52px; stroke-opacity: 1; stroke: rgb(255, 188, 94); fill: none;"></path><path class="link" marker-end="" d="M875,620.5, 1055,484.5" style="stroke-width: 0.52px; stroke-opacity: 1; stroke: rgb(255, 188, 94); fill: none;"></path><circle r="10" class="node" id="0_0" cx="695" cy="264.5" style="fill: rgb(255, 188, 94); stroke: rgb(255, 188, 94);"></circle><circle r="10" class="node" id="0_1" cx="695" cy="304.5" style="fill: rgb(255, 188, 94); stroke: rgb(255, 188, 94);"></circle><circle r="10" class="node" id="0_2" cx="695" cy="344.5" style="fill: rgb(255, 188, 94); stroke: rgb(255, 188, 94);"></circle><circle r="10" class="node" id="0_3" cx="695" cy="384.5" style="fill: rgb(255, 188, 94); stroke: rgb(255, 188, 94);"></circle><circle r="10" class="node" id="0_4" cx="695" cy="424.5" style="fill: rgb(255, 188, 94); stroke: rgb(255, 188, 94);"></circle><circle r="10" class="node" id="0_5" cx="695" cy="464.5" style="fill: rgb(255, 188, 94); stroke: rgb(255, 188, 94);"></circle><circle r="10" class="node" id="0_6" cx="695" cy="504.5" style="fill: rgb(255, 188, 94); stroke: rgb(255, 188, 94);"></circle><circle r="10" class="node" id="0_7" cx="695" cy="544.5" style="fill: rgb(255, 188, 94); stroke: rgb(255, 188, 94);"></circle><circle r="10" class="node" id="0_8" cx="695" cy="584.5" style="fill: rgb(255, 188, 94); stroke: rgb(255, 188, 94);"></circle><circle r="10" class="node" id="0_9" cx="695" cy="624.5" style="fill: rgb(255, 188, 94); stroke: rgb(255, 188, 94);"></circle><circle r="10" class="node" id="0_10" cx="695" cy="664.5" style="fill: rgb(255, 188, 94); stroke: rgb(255, 188, 94);"></circle><circle r="10" class="node" id="0_11" cx="695" cy="704.5" style="fill: rgb(255, 188, 94); stroke: rgb(255, 188, 94);"></circle><circle r="10" class="node" id="1_0" cx="875" cy="348.5" style="fill: rgb(255, 188, 94); stroke: rgb(255, 188, 94);"></circle><text class="text" dy=".35em" x="660" y="744.5" style="font-size: 12px;">Input Layer ∈ ℝ¹²</text><text class="text" dy=".35em" x="840" y="744.5" style="font-size: 12px;">Hidden Layer ∈ ℝ⁵</text><circle r="10" class="node" id="1_1" cx="875" cy="416.5" style="fill: rgb(255, 188, 94); stroke: rgb(255, 188, 94);"></circle><circle r="10" class="node" id="1_2" cx="875" cy="484.5" style="fill: rgb(255, 188, 94); stroke: rgb(255, 188, 94);"></circle><circle r="10" class="node" id="1_3" cx="875" cy="552.5" style="fill: rgb(255, 188, 94); stroke: rgb(255, 188, 94);"></circle><circle r="10" class="node" id="1_4" cx="875" cy="620.5" style="fill: rgb(255, 188, 94); stroke: rgb(255, 188, 94);"></circle><circle r="10" class="node" id="2_0" cx="1055" cy="484.5" style="fill: rgb(255, 188, 94); stroke: rgb(255, 188, 94);"></circle><text class="text" dy=".35em" x="1020" y="744.5" style="font-size: 12px;">Output Layer ∈ ℝ¹</text></g><defs><marker id="arrow" viewBox="0 -5 10 10" markerWidth="7" markerHeight="7" orient="auto" refX="40"><path d="M0,-5L10,0L0,5" style="stroke: rgb(80, 80, 80); fill: none;"></path></marker></defs></svg>